<svg xmlns="http://www.w3.org/2000/svg" xmlns:xlink="http://www.w3.org/1999/xlink" viewBox="0 0 992 180">
  <defs>
    <filter id="b" width="101.5%" height="109.8%" x="-.7%" y="-3.9%" filterUnits="objectBoundingBox">
      <feOffset dy="2" in="SourceAlpha" result="shadowOffsetOuter1"/>
      <feGaussianBlur in="shadowOffsetOuter1" result="shadowBlurOuter1" stdDeviation="2"/>
      <feColorMatrix in="shadowBlurOuter1" result="shadowMatrixOuter1" values="0 0 0 0 0 0 0 0 0 0 0 0 0 0 0 0 0 0 0.5 0"/>
      <feOffset dx="3" dy="-2" in="SourceAlpha" result="shadowOffsetOuter2"/>
      <feGaussianBlur in="shadowOffsetOuter2" result="shadowBlurOuter2" stdDeviation=".5"/>
      <feColorMatrix in="shadowBlurOuter2" result="shadowMatrixOuter2" values="0 0 0 0 1 0 0 0 0 0.184313725 0 0 0 0 0.662745098 0 0 0 0.5 0"/>
      <feOffset dx="-1" dy="2" in="SourceAlpha" result="shadowOffsetOuter3"/>
      <feGaussianBlur in="shadowOffsetOuter3" result="shadowBlurOuter3" stdDeviation=".5"/>
      <feColorMatrix in="shadowBlurOuter3" result="shadowMatrixOuter3" values="0 0 0 0 0 0 0 0 0 0.956862745 0 0 0 0 1 0 0 0 0.5 0"/>
      <feMerge>
        <feMergeNode in="shadowMatrixOuter1"/>
        <feMergeNode in="shadowMatrixOuter2"/>
        <feMergeNode in="shadowMatrixOuter3"/>
      </feMerge>
    </filter>
    <path id="a" d="M921.8 13.6c6 0 10.8 2.6 14.2 8.2 2.4 3.9 4 9.4 4 16.7 0 6.8-1.5 14.6-4.5 23.2l-.3 1 .3-.2a29 29 0 0 1 11.1-2.4h.6c6.2 0 11 2 14.7 5.7a20 20 0 0 1 5.8 14.8c0 2.5-.3 4.7-1 7v.5c1.3.8 2.5 1.9 3.5 3.4l.2.3a14 14 0 0 1 2 7.5c0 4-1.1 7.5-3 10.4a27.6 27.6 0 0 1-24.6 12.6 28 28 0 0 1-16.2-4.6l-.4-.3-.3.2c-4.4 3-9.5 4.6-15 4.7h-.6c-4.5 0-8.4-1.1-11.7-3.2a22.7 22.7 0 0 1-9.2-11l-.2-.3v.1a31.3 31.3 0 0 1-5.5 6.9l-.4.3a25 25 0 0 1-17.4 7.2c-6.7 0-12-1.9-16.2-5.4l-.3-.3v.1l-.7.5c-4.6 3.6-9.2 5-13.5 5-3.7 0-7.1-1-10.3-3.4l-.4-.3-.2.2a20.5 20.5 0 0 1-11.5 3.6h-.4c-6.7 0-12-2.6-15.9-7.4-1.6-1.9-2.8-4-3.7-6.5l-.2-.4h-.3a18 18 0 0 1-12.2-4.7l-.3-.2-.3-.3-.3-.3v.2c-.6 1.5-1 3-1.5 4.7l-.2 1-.2.7a21.3 21.3 0 0 1-4 8.8 13.2 13.2 0 0 1-10.5 4.4 13 13 0 0 1-9-3.5l-.3-.2h-.2a36 36 0 0 1-33.6-1.2l-.4-.2-.6.4a28 28 0 0 1-15.4 4.7h-.5a26.7 26.7 0 0 1-19-7.3 26.4 26.4 0 0 1-17 7.3c-7.4 0-12.6-3-16-8.2a30 30 0 0 1-4-16.3v-3.3c-1.3.6-2.8 1-4.5 1.2l-20.1 2h-1.7v1.6c0 4-1 7.5-3 10.4a27.2 27.2 0 0 1-23.5 12.6 28 28 0 0 1-16.3-4.6l-.3-.2a27 27 0 0 1-15 4.8h-.6a17 17 0 0 1-14.8-7.4l-.2-.2a15 15 0 0 1-2 3l-.1.2a13.2 13.2 0 0 1-10.5 4.4 13 13 0 0 1-10.7-5.4l-.2-.3-4.5 3a120.2 120.2 0 0 1-9.5 30.3l-.3.5a33.1 33.1 0 0 1-9.1 11.4c-4 3-8.5 4.6-13.3 4.6a18.8 18.8 0 0 1-19.3-19.2c0-4.1.9-8.3 2.8-12.6a50.4 50.4 0 0 1 10.9-15l.2-.1h-.1l-1.1-1-.3-.2-.5.2c-2.8 1.2-6 2-9.6 2.4h-.7a21.7 21.7 0 0 1-12 3.5c-5.9 0-10.1-1.7-13.1-4.3a18 18 0 0 1-2.6-2.8l-.1-.1c-4.6 3.4-9 5-13.3 5h-.4c-3.6 0-7-1-10.2-3.4l-.4-.3-.2.2a20.5 20.5 0 0 1-11.6 3.6h-.4c-6.6 0-11.9-2.6-15.8-7.4a25.4 25.4 0 0 1-5.5-16.6c0-1.1 0-2.2.2-3.3l-3.4.7-20.1 2a12 12 0 0 1-11-4.6l-.2.4c.7 4 1.5 8.1 2.6 12.1.4 1.6.7 3.2.7 4.8 0 4.4-1.7 7.4-4.3 9.5-2 1.7-5 3-9.1 3a14 14 0 0 1-9.7-3.5l-.2-.1-.2.1-.3.2-.3.2a22.8 22.8 0 0 1-10.7 2.5 20 20 0 0 1-12.8-4.3l-.3-.2a36.1 36.1 0 0 1-17 4.5h-.6c-9.4 0-16.4-2.9-21.6-8-1.9-1.8-3.4-4-4.7-6.3h-.9a18.4 18.4 0 0 1-14-5.5l-.2.2c-.5 1.5-1 3-1.4 4.7l-.2 1-.2.7a21.3 21.3 0 0 1-4 8.8 13.2 13.2 0 0 1-10.5 4.4 13 13 0 0 1-9-3.5l-.3-.2h-.2a36 36 0 0 1-15.1 3.7h-.7a29.4 29.4 0 0 1-22.6-9v.4l.3 7.7v1.6c0 9-1.8 15.8-4.9 20.5a18 18 0 0 1-15.9 9.2A16 16 0 0 1 151 148c-1-1-2-2.2-2.9-3.6l-.3-.5a18 18 0 0 1-15.3 9h-.4a16 16 0 0 1-11.7-4.9 26 26 0 0 1-6-10.9c-1.1-3.8-2-8.8-2.6-14.8v-.8h-.2c-2 .5-4.2.8-6.4.9h-.6c-4.4 0-8-1.3-10.6-3.7l-.1-.1-.2.1a16.4 16.4 0 0 1-10 3.7h-.3a16 16 0 0 1-13.8-7.6l-1.9-3.2v-.2h-.1l-3.1 3.5-.4.3a25 25 0 0 1-17.4 7.2 23 23 0 0 1-21.3-11.5c-3.6-6-5.6-14.6-5.6-26 0-8.9 1-18.6 3.3-29A94 94 0 0 1 33 28c2.7-4.6 5.7-8 8.8-10.3 3.9-2.8 8-4.2 12.5-4.2A16 16 0 0 1 68.1 21a25 25 0 0 1 4.2 14.6 52.4 52.4 0 0 1-8.6 29 24 24 0 0 1 6 6.2l.2.4a16 16 0 0 1 5.4-8l.2-.2c2.2-1.7 5.5-3 10.3-3a12 12 0 0 1 8 2.5 8 8 0 0 1 2 2.1l.1.1 1.6-1.5.2-.2c2.2-1.7 5.4-3 9.8-3a13.8 13.8 0 0 1 7.8 2h.1l.1-.3c2.6-12.2 6-22.4 10.4-30.6l.3-.7c2.9-5.3 6-9.2 9.2-11.9 4.1-3.4 8.6-5 13.1-5 5.8 0 10.3 2.4 13.6 7.2l1 1.6v.2l.3-.3c5.3-6 11-8.6 16.6-8.7h.4c5.9 0 10.6 2.6 14 7.9a29 29 0 0 1 3.7 15.3 75.3 75.3 0 0 1-5 26.1l-.1.3c3.8-2 8-3 12.5-3.1h.6a20 20 0 0 1 15.5 6.5l.4.4.2-.2c1-1.6 2.3-2.9 3.7-3.9l.3-.2c2.4-1.5 5.7-2.6 10-2.6 3.5 0 5.7.9 7 1.7a10 10 0 0 1 2.5 2.1l.1.2.3-.2.4-.3.3-.2c4-2.3 7.8-3.3 11.2-3.3a14 14 0 0 1 10.4 4c.8.7 1.5 1.6 2.1 2.7v.1l.5-.3 1.7-1.4.5-.3c4.7-3.2 10-4.8 15.9-4.8a20 20 0 0 1 18.5 11l.1.3.4-.4c1.4-1.6 3-3 4.7-4.3l.5-.4a35 35 0 0 1 10.4-5.3 119 119 0 0 1 7-28.5 35 35 0 0 1 7.9-13.1c4-4 8.5-5.8 13.4-5.8a16 16 0 0 1 13.5 7.1c2.6 3.6 4.3 9 4.3 16.3 0 8-1.9 17.3-5.8 28l-2 5.4 18.6-1.8a12 12 0 0 1 12.2 6.3 37 37 0 0 1 9.2-9.3 29.5 29.5 0 0 1 17.4-5.7c4.5 0 7 1.6 8.6 3.3l.2.1c3.4.1 5.9 1 7.6 2.2l.2.2c2.9 2 4.6 4.9 4.6 9v.5c-.1 1.8-.4 4.2-1 7.4l-.1.8.1-.3a108 108 0 0 0 2.2-4.3l.5-1c1.4-3.1 2.9-6.3 4.2-9.6 1.4-3.2 3.6-5.5 6.4-7 2.3-1.4 5.2-2.2 8.7-2.2 3.5 0 5.8.6 7.2 1.2a9.7 9.7 0 0 1 5.7 8.9v.3c0 .9-.2 2.2-.7 3.9l-1.3 3.3-.6 1.1a7 7 0 0 0-.5 1.2 114.7 114.7 0 0 1 4 5.4l.2.3v-.2c.7-3.9 1.7-8 3-12.3l.4-1a16 16 0 0 1 5.7-8.2c2.1-1.6 5.4-2.8 10.2-2.8 4.1 0 6.6 1.3 8.1 2.5.7.6 1.4 1.3 2 2.1v.1l1.6-1.5.3-.2c2.1-1.7 5.3-3 9.8-3 3.7 0 6.1 1 7.5 2a10 10 0 0 1 3.6 4v.2l.2-.1c1-1.3 2-2.4 3.3-3.3l.3-.2c2.4-1.5 5.6-2.6 10-2.6 3.5 0 5.7.9 7 1.7a10 10 0 0 1 2.5 2.1v.2l.4-.2.4-.3.3-.2c4-2.3 7.8-3.3 11.1-3.3a14 14 0 0 1 10.5 4c1.4 1.4 2.6 3.2 3.3 5.6v.1l.2-.2c1.6-1.8 3.4-3.4 5.4-4.7l.5-.3A27 27 0 0 1 598 60a18.5 18.5 0 0 1 18.2 12.4c1.8-1 3.9-1.8 6.5-2l20-2a12 12 0 0 1 10.1 3.5l.2-.6c1-3.3 2.3-5.6 3.8-7.1a14.8 14.8 0 0 1-3.4-10c0-4.6 1.8-8.6 5.5-11.7 3.2-2.8 7.1-4.3 11.9-4.3a17 17 0 0 1 13 5.6l.3.4V44c2.7-6.7 6-12 9.6-16 5-5.5 10.6-7.9 16.3-7.9 5.6 0 10 2.3 13.2 7.3a24 24 0 0 1 3.7 13.4c0 6.9-1.6 13.3-4.7 19.2l-.2.3h.2c1 .5 2 1.2 2.6 1.9l.2.1 1 1.1v.2l.4-.2c4-2.2 8.3-3.3 13-3.4h.6a20 20 0 0 1 15.8 6.9l.3-.2c1-1.6 2.3-2.9 3.7-3.9l.3-.2c2.4-1.5 5.7-2.6 10-2.6 3.5 0 5.7.9 7 1.7a10 10 0 0 1 2.5 2.1l.1.2.3-.2.4-.3.3-.2c4-2.3 7.8-3.3 11.2-3.3a14 14 0 0 1 10.4 4 11 11 0 0 1 3 4.9l.1.2.4-.4c1-1 2.2-2 3.4-2.8l.5-.4a29.5 29.5 0 0 1 17.4-5.7c4.6 0 7.1 1.6 8.6 3.3l.2.1c2.8 0 4.9.7 6.5 1.6h.2l.1-.4 1.4-7.7.2-1a94 94 0 0 1 10-27.7 33 33 0 0 1 8.9-10.3c3.8-2.8 8-4.2 12.5-4.2a16 16 0 0 1 13.7 7.3c2.7 3.7 4.2 8.6 4.2 14.6a52.4 52.4 0 0 1-8.6 29c1.3.8 2.4 1.9 3.5 3l.2.3.2-1 1.4-8.3.3-1.2c2.2-11 5.5-20.6 9.9-28.5 2.6-4.9 5.6-8.4 8.7-10.8 4-3 8.1-4.4 12.6-4.4Z"/>
  </defs>
  <g fill="none">
    <use xlink:href="#a" fill="#000" filter="url(#b)"/>
    <use xlink:href="#a" fill="#FFF"/>
    <path fill="#FF2FA9" d="M352 21.6c2.8 0 5.2 1.3 7 3.9 1.9 2.5 2.8 6.4 2.8 11.5a73 73 0 0 1-5.3 25.2 198 198 0 0 1-14 29.7c.8 5.4 1.8 10.7 3.2 15.9.2.8.4 1.7.4 2.6 0 3-1.8 4.4-5.4 4.4-2 0-3.6-.5-4.7-1.6a16 16 0 0 1-3-6.3v-.4c-2.5 3-4.8 5.1-6.8 6.2-2 1-4.3 1.6-6.9 1.6-4 0-7.2-1.5-9.8-4.5a10 10 0 0 1-1.7-2.5 46 46 0 0 1-5 3.2 28.3 28.3 0 0 1-14.2 3.8c-6.8 0-12.2-1.9-16-5.6a18.6 18.6 0 0 1-5.1-9.9c-2 .8-4 1.2-6.1 1.2-3.5 0-6-.8-7.9-2.6a9.6 9.6 0 0 1-2.7-7.2c0-1 .1-2 .3-2.9l.1-1v-.7l.1-1c0-1-.3-1.5-1-1.5-1 0-2.3 1-4 3.3a70.5 70.5 0 0 0-8.6 20v.8c-.8 2.6-1.5 4.5-2.4 5.4-1 1.1-2.4 1.7-4.4 1.7-2.5 0-4.3-1.3-5.3-4a16 16 0 0 1-.8-3 45.9 45.9 0 0 1-5 3.2 28.3 28.3 0 0 1-14.2 3.8c-6.8 0-12.2-1.9-16-5.6a18.9 18.9 0 0 1-5.3-11c-1.5.4-3.3.5-5.3.6h-.7l-1.8-.1-3.6-.2a111 111 0 0 1 2.4 25c0 7-1.2 12.4-3.6 16.2-2.4 3.7-5.4 5.5-9.2 5.5-4.7 0-8-3.3-10-10-2-6.6-3-16.7-3-30.1l.3-10.5h-4.6l-2.5.2a185.1 185.1 0 0 1 2 28.7c0 7-1.2 12.4-3.5 16.2-2.4 3.7-5.5 5.5-9.2 5.5-4.7 0-8-3.3-10-10-1.8-6-2.8-14.9-3-26.5-1.1 1-2.3 1.9-3.5 2.7a19 19 0 0 1-11 3.4 7.5 7.5 0 0 1-6.9-3.7 19.7 19.7 0 0 1-2.2-10.2 23 23 0 0 1-5 10.3c-2.2 2.4-4.6 3.6-7.1 3.6-3 0-5.4-1.4-7.2-4.1a17.3 17.3 0 0 1-2.8-10.2v-4.7c-2.3.4-4.8.7-7.4.8a25.4 25.4 0 0 1-7.3 13.2c-3.7 3.3-7.7 5-12 5-6.6 0-11.4-2.6-14.4-7.6S27.7 94.4 27.7 85c0-8.5 1-17.6 3.1-27.5A86 86 0 0 1 40 32c4-7 8.8-10.5 14.3-10.5 3 0 5.4 1.3 7.2 3.9a17 17 0 0 1 2.8 10c0 5.4-1 10.7-3 16a62 62 0 0 1-10.1 16.7c4.3.3 7.9 2.1 10.6 5.4 2.8 3.3 4.4 7.4 5 12.2 2.2-.1 4.8-.5 7.8-1.2.7-3.5 1.6-7.2 2.9-11 .6-2 1.6-3.4 2.7-4.2 1.2-.9 3-1.3 5.6-1.3 1.4 0 2.4.2 3 .7.6.4.8 1.1.8 2 0 .6-.3 2.3-1 5.3-.7 2.4-1.2 4.6-1.6 6.6l-.4 2-.3 1.6c-.8 4.9-1.3 8.3-1.3 10.1a7 7 0 0 0 .5 3c.3.5.9.7 1.6.7 1 0 2.2-1 3.7-2.9 1.4-2 3-5 4.7-9 1.6-3.9 3.2-8.8 4.8-14.6.5-2 1.3-3.4 2.4-4.2 1-.9 2.7-1.3 4.8-1.3 1.5 0 2.6.2 3.2.5.6.4.9 1 .9 2v.6a206 206 0 0 1-2 11L109 84c-1.8 8.3-2.7 13.5-2.7 15.5 0 1.2.2 2.2.7 2.8.6.7 1.3 1 2.1 1 1.3 0 2.9-.7 4.7-2.3a64 64 0 0 0 5.3-5.7c.5-9.6 1.7-19.3 3.6-29.1 2.5-13 6-23.6 10.5-32 4.5-8.5 9.6-12.7 15.2-12.7 3 0 5.3 1.3 7 3.7 1.6 2.5 2.4 6 2.4 10.5 0 7.2-1.9 15-5.7 23.8A92.8 92.8 0 0 1 132 87.1a165 165 0 0 0-.9 16.8c0 6 .2 12.4.6 18.8l.1 1.9c.5 7 1.2 10.6 2.3 10.6 1 0 1.7-.8 2.3-2.4.6-1.6.9-4.2.9-7.8 0-6.4-.3-12-.7-17l-.2-1.3-.1-1.3a95.9 95.9 0 0 0-1.6-11.3c0-2.8 1-5.2 3.3-7 2.3-1.8 5.3-2.8 9-2.8h3.7c1.2-10.9 3.3-21 6.1-30.7a81.4 81.4 0 0 1 10.4-23.1c4-6 8.5-8.9 13.2-8.9a8 8 0 0 1 7.2 4.1c1.7 2.8 2.5 6.5 2.5 11.1a74 74 0 0 1-12.8 39.4 40 40 0 0 1-15 14c-.4 4.4-.6 9-.6 13.7 0 6 .2 12.4.5 18.8l.1 1.9c.5 7 1.3 10.6 2.3 10.6 1 0 1.8-.8 2.3-2.4.6-1.6 1-4.2 1-7.8 0-5-.3-10-.9-14.6l-.1-1.3-.2-1.4a122.5 122.5 0 0 0-1.5-10.8c0-2.7.9-5 2.7-6.8 1.9-1.9 4-2.8 6.3-2.8 2 0 3.8 0 5.5-.2h.6l3.5-.4h1a23.3 23.3 0 0 1 10-15 18 18 0 0 1 11.3-3.6c3.8 0 6.8 1.1 9.1 3.4a12 12 0 0 1 3.4 9.1c0 4.5-1.6 8.4-4.8 11.7a35 35 0 0 1-16.4 7.6c1.6 3 4.7 4.6 9.3 4.6 3 0 6.3-1 10-3.1a33 33 0 0 0 7.4-5.6c.2-7.7 1.4-15.2 3.6-22.2a7.4 7.4 0 0 1 3-4.2 9.5 9.5 0 0 1 5.5-1.3c1.3 0 2.3.2 2.8.5s.8 1 .8 1.8v.3a43 43 0 0 1-1.5 6.8l-.3 1.3-.3 1.3-1 4.3c-.4 2-.7 4.3-1 7.2A55.8 55.8 0 0 1 243 78c2.7-3.5 5.3-6 7.9-7.6 2.6-1.5 5-2.2 7-2.2 4.3 0 6.4 2.1 6.4 6.4v.2c0 1-.3 3-.8 6l-.2 1-.3 1.1-.3 2.7c0 2.3.8 3.5 2.4 3.5.7 0 1.5-.2 2.3-.6a25 25 0 0 1 10.3-16.9c3.4-2.3 7.2-3.4 11.4-3.4 3.8 0 6.8 1.1 9.1 3.4a12 12 0 0 1 3.4 9.1c0 4.5-1.6 8.4-4.8 11.7a35 35 0 0 1-16.4 7.6c1.6 3 4.7 4.6 9.3 4.6 3 0 6.3-1 10-3.1a33 33 0 0 0 6-4.2A31.8 31.8 0 0 1 318 72.7a27 27 0 0 1 12.9-5.1 126 126 0 0 1 7-32.2c3.6-9.2 8.2-13.8 14-13.8Zm-21.7 56.1c-3.6 1-6.6 3.4-9 7.2a22.7 22.7 0 0 0-3.4 12.3c0 4.8 1.6 7.2 4.9 7.2a6 6 0 0 0 3.7-1.5c1.2-1 2.8-2.9 4.7-5.7-.7-4.8-1-9.7-1-14.8V80l.1-2.3Zm-280.7.1h-.3c-2.7 0-4.9 1.3-6.7 4a18.7 18.7 0 0 0-2.7 10.6c0 3.7.7 6.6 2.1 8.5 1.4 2 3 3 5 3s3.8-.9 5.3-2.6a14 14 0 0 0 3.2-7.3c-2-1.4-3.6-3.2-4.7-5.4a16 16 0 0 1-1.2-10.8Zm154.8-.1c-2.4 0-4.4 1.4-6 4.2a19 19 0 0 0-2.6 9.7v.7c3.9-1 7-2.3 9.1-4.1a8 8 0 0 0 3.4-6.4 5 5 0 0 0-1-3 3.6 3.6 0 0 0-2.9-1.1Zm83 0c-2.4 0-4.4 1.4-6 4.2a19 19 0 0 0-2.6 9.7v.7c3.9-1 6.9-2.3 9.1-4.1a8 8 0 0 0 3.3-6.4c0-1.2-.3-2.2-1-3a3.6 3.6 0 0 0-2.8-1.1Zm97.7 0c.8 1 1.3 2.4 1.3 4.2 0 3.5-1.7 5.5-5.1 5.8l-20 2c-1.6 0-2.9-.4-3.8-1.4-1-1-1.5-2.5-1.5-4.4 0-1.8.5-3.1 1.4-4a6 6 0 0 1 3.8-1.4l20-2c1.7-.1 3 .3 3.9 1.2ZM178.3 31.3c-1.3 0-2.9 2.3-4.7 6.9-1.9 4.6-3.7 10.5-5.5 18a257 257 0 0 0-4.5 22.9c3.7-3 6.9-6.9 9.5-11.8a65.4 65.4 0 0 0 7.6-30c0-4-.8-6-2.4-6Zm172.7 0c-2 0-3.7 4.8-5.4 14.4-1.6 9.7-2.8 20.2-3.4 31.6a97.2 97.2 0 0 0 10.9-38.2c0-2.5-.2-4.4-.6-5.8-.5-1.4-1-2-1.5-2Zm-299 0c-1.3 0-2.7 2-4.2 5.9A94 94 0 0 0 43.5 53a191 191 0 0 0-2.9 21.9c4.3-8 7.7-15 10.3-21 2.6-6 3.9-11.4 3.9-16.1 0-2-.3-3.7-.7-4.8-.5-1.1-1.2-1.7-2-1.7Zm94.5 0c-1.2 0-2.6 2-4.2 6a116 116 0 0 0-4.7 15.9c-1.6 6.6-3 13.6-4 21a63.1 63.1 0 0 0 15-37.9c0-1.6-.2-2.8-.6-3.7-.4-.8-1-1.3-1.5-1.3ZM461.6 67c1.9 0 3.1.2 3.9.5.7.3 1 .9 1 1.6 0 .4 0 1-.4 1.8-.2.9-.6 1.7-1 2.6a14 14 0 0 0-1.8 6c0 1 .4 2 1 3.2.7 1.2 1.8 2.6 3.2 4.4 2.1 2.8 3.7 5 4.8 7 1 2 1.6 4 1.6 6.3 0 .7 0 1.6-.2 2.8 2.6-1 5.5-3.3 8.8-7a80 80 0 0 1 4.1-22.6c.7-2 1.6-3.4 2.7-4.2 1.2-.9 3-1.3 5.6-1.3 1.5 0 2.5.2 3 .7.6.4.8 1.1.8 2v.4c0 .7-.4 2.4-1 5a102.5 102.5 0 0 0-3.6 20.2c0 2.5.7 3.7 2.1 3.7 1 0 2.2-1 3.7-2.9 1.4-2 3-5 4.7-9 1.6-3.9 3.2-8.8 4.8-14.6.5-2 1.3-3.4 2.4-4.2 1-.9 2.7-1.3 4.9-1.3 1.5 0 2.5.2 3 .6.7.4 1 1 1 2v.5c-.2 2.1-1 7.6-2.6 16.3l-2.5 15.8c4.8-3.6 9.4-7 14-10a76 76 0 0 1 3.5-19.7 7.4 7.4 0 0 1 2.9-4.2 9.9 9.9 0 0 1 5.6-1.3c1.3 0 2.2.2 2.7.5.6.3.8 1 .8 1.8 0 1-.5 3.4-1.4 7.1l-.4 1.3-.3 1.3-.9 4.3c-.4 2-.7 4.3-1 7.2a55.8 55.8 0 0 1 7.3-13.7c2.6-3.5 5.3-6 7.8-7.6 2.6-1.5 5-2.2 7.1-2.2 4.3 0 6.4 2.1 6.4 6.4a65 65 0 0 1-2 12.7l-.5 2.5-.2 1a51 51 0 0 0-1.3 8.9c0 2.6 1 3.9 2.8 3.9 1.3 0 2.9-.8 4.7-2.4l3.3-3.3a29.6 29.6 0 0 1 3-17.2c2-4 4.7-7.1 8-9.3a19 19 0 0 1 10.5-3.2c3.6 0 6.4 1 8.4 3.2 2 2.1 3 4.8 3 8.2 0 2.7-.7 5-1.9 7-1.2 1.8-2.8 2.8-4.7 2.8-1.3 0-2.3-.3-3-1a3 3 0 0 1-1.1-2.4c0-.4 0-1 .2-1.5l.3-1.3c.3-1 .4-2 .4-2.8 0-.8-.2-1.5-.6-2-.4-.4-1-.6-1.8-.6a6 6 0 0 0-4.2 2 14.3 14.3 0 0 0-3.1 5.4c-.8 2.3-1.2 4.9-1.2 7.6 0 3.7.8 6.5 2.3 8.5a7.9 7.9 0 0 0 6.5 2.9c2.2 0 4.3-.7 6.1-2a22 22 0 0 0 5.5-5.8c.8-1 1.7-1.4 2.7-1.4.8 0 1.5.3 2 1.1s.7 1.9.7 3.3c0 2.3-.5 4.3-1.6 6a19.3 19.3 0 0 1-16.9 9 19.2 19.2 0 0 1-16.2-7.5c-1.6 1.6-3.2 3-5 4.1a19 19 0 0 1-11 3.4c-3.3 0-5.8-1-7.5-3a12.1 12.1 0 0 1-2.6-8.3c0-1.8.5-5.1 1.4-9.8l.3-1.3.2-1.2c.5-2.8.8-4.8.8-6 0-1-.4-1.6-1-1.6-1 0-2.1 1-3.7 3.3a67.5 67.5 0 0 0-8.6 20c-.6 3-1.5 5.2-2.4 6.2-1 1.1-2.5 1.7-4.5 1.7-2.5 0-4.2-1.3-5.2-4-.6-1.5-1-3.6-1.3-6.3l-16 10.8a116.7 116.7 0 0 1-9.8 32c-4 7.7-9.1 11.6-15.3 11.6-3.4 0-6-1-8.2-3.1-2-2-3-4.8-3-8.1 0-3 .6-6.2 2-9.4s4-6.9 7.8-11c3.9-4.2 9.3-9 16.2-14.3l.3-2.3.2-1 .2-1.1 1.2-8.2a25 25 0 0 1-5.5 10.7c-2.3 2.4-4.8 3.7-7.4 3.7-3 0-5.4-1.4-7.2-4.1-.6-.8-1-1.8-1.5-2.7a21.2 21.2 0 0 1-4.6 3.2c-3 1.5-6.6 2.3-11 2.4a13.9 13.9 0 0 1-9.3 3.3c-3.4 0-6-.8-7.8-2.3a7 7 0 0 1-2.7-5.3 6 6 0 0 1 1.9-4.4c1.2-1.3 3-1.9 5.5-1.9.7 0 1.6 0 2.5.2l2 .3h1.1a13 13 0 0 0-1.2-4.7 24 24 0 0 0-2.6-4.4l-2.9-3.7a64 64 0 0 1-7.7 12l-.2.2a49.3 49.3 0 0 1-8.5 8.4c-3 2.3-6 3.5-8.8 3.5-2.1 0-4-.8-5.9-2.2a13.4 13.4 0 0 1-4-6c-3.4 5.4-7.7 8.2-12.9 8.2-4 0-7.2-1.5-9.6-4.5a17 17 0 0 1-3.7-11.5 32 32 0 0 1 13.3-26.1c4-2.9 8.3-4.3 12.8-4.3 1.4 0 2.4.3 2.9.8a7 7 0 0 1 1.2 3 23 23 0 0 1 4.3-.4c3.2 0 4.8 1.2 4.8 3.5v.5c-.1 1.6-.6 4.7-1.5 9.3l-.3 1.7-.2 1.1a80 80 0 0 0-1.7 12.8c0 1 .2 1.8.7 2.4.5.6 1.1.9 1.9.9 1.2 0 2.7-.8 4.5-2.4l2-1.9.7-1 .9-1c2.5-3.4 4.5-6.1 6-8.4l.4-.7.4-.8a253.8 253.8 0 0 0 7.5-16c1.3-2.8 3.8-4.3 7.7-4.3Zm39.6 57.3c-5 4.2-8.7 8-11 11.6a17.7 17.7 0 0 0-3.3 9.1c0 1.2.2 2 .6 2.8.5.7 1.2 1 2.1 1 1.7 0 3.5-1.8 5.5-5.6s4-10.1 6-19ZM420.7 77c-2.7 0-5.2 1.1-7.5 3.1-2.4 2-4.2 4.6-5.6 7.9-1.3 3.3-2 6.7-2 10.4 0 2 .4 3.5 1.2 4.5.8 1 2 1.5 3.4 1.5s2.8-.9 4-2.6a17 17 0 0 0 3-6.8l3.5-18Zm202.7 12.7c-1.5 0-2.8-.4-3.7-1.4-1-1-1.5-2.5-1.5-4.4 0-1.8.5-3.1 1.4-4a6 6 0 0 1 3.8-1.4l20.1-2c1.6-.1 2.9.3 3.8 1.2.8 1 1.3 2.4 1.3 4.2 0 3.5-1.7 5.5-5.1 5.8l-20 2Zm298.4-68c3.2 0 5.6 1.4 7.4 4.3 1.8 2.9 2.7 7 2.7 12.5 0 7.8-2.1 16.8-6.4 27A149.9 149.9 0 0 1 907.9 96c.5 2.7 1.3 4.6 2.3 5.8 1 1.1 2.4 1.7 4.1 1.7 2.7 0 5-.8 7-2.3 1.2-.9 2.5-2.1 4-3.7a31.2 31.2 0 0 1 2.6-16.7c2-3.9 4.5-7 7.9-9.3 3.4-2.3 7.2-3.4 11.4-3.4 3.8 0 6.8 1.1 9.1 3.4a12 12 0 0 1 3.4 9.1c0 4.5-1.6 8.4-4.8 11.7a35.1 35.1 0 0 1-16.5 7.6c1.6 3 4.2 4.6 8 4.6a11 11 0 0 0 6.5-1.9 32 32 0 0 0 6-6.3c.8-1 1.7-1.4 2.7-1.4.8 0 1.5.3 2 1.1s.7 1.9.7 3.3c0 2.3-.5 4.3-1.6 6a19 19 0 0 1-7.2 6.6c-3 1.6-6.5 2.4-10.7 2.4a18.8 18.8 0 0 1-16.1-7.6 39 39 0 0 1-5.2 4.2c-3.3 2.2-7 3.4-11.2 3.4-5.8 0-10-2.7-12.8-7.9a34 34 0 0 1-3.6-11.4 47 47 0 0 1-8.6 1.1 25.4 25.4 0 0 1-7.4 13.2c-3.6 3.3-7.6 5-12 5-6.6 0-11.4-2.6-14.4-7.6l-1-2a47 47 0 0 1-6.6 6.1c-3 2.3-6 3.5-8.7 3.5-2.2 0-4.1-.8-6-2.2a13.4 13.4 0 0 1-4-6c-3.4 5.4-7.7 8.2-12.8 8.2-4 0-7.3-1.5-9.7-4.5A17.3 17.3 0 0 1 801 99c-1.9.7-3.8 1-5.8 1-3.5 0-6-.8-7.9-2.6a9.6 9.6 0 0 1-2.7-7.2c0-1 .1-2 .3-2.9l.1-1v-.7l.1-1c0-1-.3-1.5-1-1.5-1 0-2.3 1-4 3.3a70.5 70.5 0 0 0-8.6 20v.8c-.8 2.6-1.5 4.5-2.4 5.4-1 1.1-2.4 1.7-4.4 1.7-2.5 0-4.3-1.3-5.3-4a16 16 0 0 1-.8-3 46 46 0 0 1-5 3.2 28.3 28.3 0 0 1-14.2 3.8c-6.8 0-12.2-1.9-16-5.6-.6-.7-1.3-1.4-1.8-2.2a38.8 38.8 0 0 1-5.5 4.4 20.1 20.1 0 0 1-11.4 3.4c-8.8 0-14.6-4-17.6-12.2l-.2.3c-6.5 8-12.5 11.9-18.2 11.9-4.2 0-7.3-1.5-9.2-4.5-2-3-2.9-7-2.9-12a107.3 107.3 0 0 1 3.7-23.3l.3-1c.6-2 1.4-3.4 2.4-4.2 1-.8 2.5-1.2 4.7-1.2 3.3 0 5 1.1 5 3.3v.6c-.2 2-.8 5.5-1.9 10.8l-.2 1-.4 1.7a70.3 70.3 0 0 0-1.7 11.9c0 2 .2 3.5.7 4.5.6 1 1.4 1.6 2.7 1.6 1.2 0 2.6-.8 4.4-2.5l.4-.4.5-.5c1.6-1.6 3.7-3.9 6.1-6.8.5-.6 1-1 1.6-1.2l-.2-6 .3-8.7h-3.8c-2 0-3.3-.4-4-1-.7-.8-1-2-1-3.5 0-3.7 1.5-5.5 4.4-5.5h5.6a95.5 95.5 0 0 1 5-19.7c2.3-6 5.1-10.7 8.3-14.2 3.3-3.5 6.7-5.3 10.4-5.3 2.8 0 5 1.2 6.5 3.6 1.6 2.4 2.4 5.5 2.4 9.1 0 10.2-4.3 19-12.8 26.5h11c1 0 1.8.2 2.2.7.5.4.7 1.3.7 2.5 0 4.5-3.7 6.8-11 6.8h-12v2l-.1 2V85c0 6.8.7 11.6 2.3 14.4 1.6 2.7 4.2 4 7.6 4 2.8 0 5.3-.8 7.5-2.5 1.1-.9 2.4-2 3.8-3.5a28.9 28.9 0 0 1 2.6-16.6c2-3.9 4.5-7 7.9-9.3 3.4-2.3 7.2-3.4 11.4-3.4 3.8 0 6.8 1.1 9.1 3.4a12 12 0 0 1 3.4 9.1c0 4.5-1.6 8.4-4.8 11.7a35 35 0 0 1-16.4 7.6c1.6 3 4.7 4.6 9.3 4.6 3 0 6.3-1 10-3.1a33 33 0 0 0 7.4-5.6c.2-7.7 1.4-15.2 3.6-22.2a7.4 7.4 0 0 1 3-4.2 9.5 9.5 0 0 1 5.5-1.3c1.3 0 2.3.2 2.8.5s.8 1 .8 1.8v.3a43 43 0 0 1-1.5 6.8l-.3 1.3-.3 1.3-1 4.3c-.4 2-.7 4.3-1 7.2A55.8 55.8 0 0 1 777 78c2.7-3.5 5.3-6 7.9-7.6 2.6-1.5 5-2.2 7-2.2 4.3 0 6.4 2.1 6.4 6.4v.4c0 1-.4 3-.8 5.7L797 82l-.2 1-.3 2.6c0 2.3.8 3.5 2.4 3.5 1.1 0 2.5-.6 4-1.7a33 33 0 0 1 11.3-15.1c4-2.9 8.3-4.3 12.8-4.3 1.4 0 2.4.3 2.9.8a7 7 0 0 1 1.2 3 23 23 0 0 1 4.3-.4c3.2 0 4.8 1.2 4.8 3.5v.5c-.1 1.6-.6 4.7-1.4 9.3l-.4 1.7-.3 1.7a86 86 0 0 0-1.6 12.2c0 1 .2 1.8.7 2.4.5.6 1.2.9 2 .9 1.2 0 2.7-.8 4.4-2.4l.5-.4a80 80 0 0 0 5.5-6c-.5-3-.7-6.2-.7-9.8 0-8.5 1-17.6 3.2-27.5a86 86 0 0 1 9.1-25.3c4-7 8.8-10.5 14.4-10.5 3 0 5.4 1.3 7.2 3.9a17 17 0 0 1 2.7 10c0 5.4-1 10.7-3 16a64 64 0 0 1-10 16.7c4.3.3 7.8 2.1 10.6 5.4 2.7 3.3 4.4 7.4 4.9 12.2a56 56 0 0 0 7.2-1 143 143 0 0 1 3.1-26c2-10.1 5.1-18.9 9.1-26.2 4-7.3 8.8-11 14.3-11ZM828.5 77c-2.8 0-5.3 1.1-7.6 3.1s-4.2 4.6-5.5 7.9a26 26 0 0 0-2 10.4c0 2 .3 3.5 1.1 4.5s2 1.5 3.4 1.5 2.8-.9 4.1-2.6a17 17 0 0 0 2.9-6.8l3.6-18Zm42.5.8h-.3c-2.7 0-5 1.3-6.7 4a18.7 18.7 0 0 0-2.7 10.6c0 3.7.7 6.6 2 8.5 1.5 2 3.1 3 5 3 2 0 3.8-.9 5.4-2.6a14 14 0 0 0 3.1-7.3c-2-1.4-3.5-3.2-4.6-5.4a16 16 0 0 1-1.2-10.8Zm-132.7-.1c-2.4 0-4.4 1.4-6 4.2a19 19 0 0 0-2.6 9.7v.7c3.9-1 7-2.3 9.1-4.1a8 8 0 0 0 3.4-6.4 5 5 0 0 0-1-3 3.6 3.6 0 0 0-2.9-1.1Zm207.2 0c-2.4 0-4.4 1.4-6 4.2a19 19 0 0 0-2.6 9.7v.7c3.9-1 6.9-2.3 9.1-4.1a8 8 0 0 0 3.3-6.4c0-1.2-.3-2.2-1-3a3.6 3.6 0 0 0-2.8-1.1Zm-25.8-46.4c-1.5 0-3.2 2.7-5.1 8.2a146.4 146.4 0 0 0-7.3 43.3c4.6-7.7 8.3-15.3 11-23a63 63 0 0 0 4.1-21v-1.4c-.2-4-1-6-2.7-6Zm-46.3 0c-1.3 0-2.7 2-4.3 5.9A94 94 0 0 0 865 53c-1.3 6.7-2.3 14-3 21.9 4.4-8 7.8-15 10.4-21a41 41 0 0 0 3.8-16.1c0-2-.2-3.7-.7-4.8-.5-1.1-1.2-1.7-2-1.7Zm-166 6.3c-1 0-2 1.2-3.3 3.7a52.4 52.4 0 0 0-3.4 10.2c-1 4.3-2 9.1-2.7 14.4a33 33 0 0 0 8.7-11.2c1.9-4.1 2.9-8 2.9-11.3 0-3.9-.8-5.8-2.2-5.8Zm-36.6 8.7c2.4 0 4.4.6 5.9 1.8a6 6 0 0 1 2.2 5 8 8 0 0 1-2.5 6.2 9.7 9.7 0 0 1-6.8 2.3c-2.7 0-4.8-.6-6.1-1.9a7 7 0 0 1-2-5.3c0-2.3.8-4.2 2.6-5.8a10 10 0 0 1 6.7-2.3Z"/>
  </g>
</svg>
